<svg xmlns="http://www.w3.org/2000/svg" version="1.1" xmlns:xlink="http://www.w3.org/1999/xlink" xmlns:svgjs="http://svgjs.dev/svgjs" width="1000" height="1000"><g clip-path="url(#SvgjsClipPath1100)"><rect width="1000" height="1000" fill="#ffffff"></rect><g transform="matrix(37.5,0,0,37.5,50,50)"><svg xmlns="http://www.w3.org/2000/svg" version="1.1" xmlns:xlink="http://www.w3.org/1999/xlink" xmlns:svgjs="http://svgjs.dev/svgjs" width="24" height="24"><svg xmlns="http://www.w3.org/2000/svg" width="24" height="24" viewBox="0 0 24 24" fill="none" stroke="currentColor" stroke-width="2" stroke-linecap="round" stroke-linejoin="round" class="lucide lucide-qr-code-icon lucide-qr-code"><rect width="5" height="5" x="3" y="3" rx="1"></rect><rect width="5" height="5" x="16" y="3" rx="1"></rect><rect width="5" height="5" x="3" y="16" rx="1"></rect><path d="M21 16h-3a2 2 0 0 0-2 2v3"></path><path d="M21 21v.01"></path><path d="M12 7v3a2 2 0 0 1-2 2H7"></path><path d="M3 12h.01"></path><path d="M12 3h.01"></path><path d="M12 16v.01"></path><path d="M16 12h1"></path><path d="M21 12v.01"></path><path d="M12 21v-1"></path></svg></svg></g></g><defs><clipPath id="SvgjsClipPath1100"><rect width="1000" height="1000" x="0" y="0" rx="350" ry="350"></rect></clipPath></defs></svg>